<svg xmlns="http://www.w3.org/2000/svg" viewBox="0 0 64 64"><defs><linearGradient x1="0" y1="0" x2="1" y2="1" id="gold"><stop offset="0" stop-color="#F6E3A1"></stop><stop offset="0.45" stop-color="#D2AE5C"></stop><stop offset="1" stop-color="#8A6424"></stop></linearGradient><linearGradient x1="0" y1="0" x2="0" y2="1" id="cream"><stop offset="0" stop-color="#FFFBEF"></stop><stop offset="1" stop-color="#E8DCC0"></stop></linearGradient><linearGradient x1="0" y1="0" x2="0" y2="1" id="kraft"><stop offset="0" stop-color="#E9DCC2"></stop><stop offset="1" stop-color="#CDBA97"></stop></linearGradient><radialGradient cx="0.38" cy="0.32" r="0.75" id="wax"><stop offset="0" stop-color="#B4424A"></stop><stop offset="0.55" stop-color="#7D1418"></stop><stop offset="1" stop-color="#4E0709"></stop></radialGradient><linearGradient x1="0" y1="0" x2="1" y2="1" id="maroon"><stop offset="0" stop-color="#A2343A"></stop><stop offset="1" stop-color="#5C0A0C"></stop></linearGradient><radialGradient cx="0.5" cy="0.5" r="0.5" id="vinyl"><stop offset="0" stop-color="#3A3333"></stop><stop offset="1" stop-color="#141010"></stop></radialGradient></defs><g><path d="M8 42 C10 52 30 56 46 52 C56 49 60 42 58 34 C52 38 46 38 40 36 C36 34 34 30 35 24 C36 18 34 12 28 11 C22 10 18 15 21 18 C23 16 27 16 28 20 C30 27 26 32 26 38 C20 36 12 36 8 42 Z" fill="url(#cream)" stroke="#5A4630" stroke-width="0.9"></path><path d="M21 18 L15 20 L20 21 Z" fill="#C97A3A"></path><circle cx="24.5" cy="15" r="1" fill="#2D120D"></circle><path d="M30 44 C38 40 46 42 54 38 M28 48 C36 46 44 47 52 44" stroke="#C9A24E" stroke-width="1" fill="none" opacity="0.8"></path></g></svg>